<svg xmlns="http://www.w3.org/2000/svg" fill="none" viewBox="0 0 233 493"><path fill="#000" stroke="#000" d="M232.315 107v149.017a.988.988 0 0 1-1.003.983h-29.597a.995.995 0 0 1-1.004-.99V131c0-30-45.55-34.92-62-34.92-16.45 0-64.82 5.42-64.82 34.92s9.74 87.5 9.74 102.5c0 23.5-49.816 71-49.816 130.5 0 62.5 29.711 90.42 49.816 94.92 21.564 2.396 94.443.072 116.118.002a.937.937 0 0 0 .962-.962V306.477a.971.971 0 0 0-.989-.977h-46.915a.992.992 0 0 1-.992-.999v-29.502a.99.99 0 0 1 .988-.999h78.516c.552 0 .996.424.996.977V490.08c0 .552-.445.92-.998.92-57.725.018-120.327 1.568-147.686 0C8.026 477.5 1 403 1 364c0-67.5 49.815-104 49.815-130.5s-9-73.5-9-102.5c0-44.5 38.896-67 96.896-67 62 0 93.604 28.512 93.604 43Z"/><circle cx="142.211" cy="287" r="33" fill="#000"/><rect width="33" height="287" x="125.211" fill="#000" rx="16.5"/></svg>