<svg xmlns="http://www.w3.org/2000/svg" fill="none" viewBox="0 0 467 535"><path fill="#000" stroke="#000" d="M241 107v149.017a.988.988 0 0 1-1.003.983H210.4a.996.996 0 0 1-1.005-.99V131c0-30-45.549-34.92-62-34.92-16.45 0-64.82 5.42-64.82 34.92s9.74 87.5 9.74 102.5c0 23.5-49.815 71-49.815 130.5 0 62.5 29.71 90.42 49.815 94.92 21.565 2.396 94.444.072 116.119.002a.937.937 0 0 0 .961-.962V306.477a.97.97 0 0 0-.988-.977h-46.916a.992.992 0 0 1-.991-.999v-29.502a.99.99 0 0 1 .988-.999h78.516c.552 0 .996.424.996.977V490.08c0 .552-.446.92-.998.92-57.725.018-120.328 1.568-147.687 0-75.604-13.5-82.63-88-82.63-127 0-67.5 49.815-104 49.815-130.5s-9-73.5-9-102.5c0-44.5 38.895-67 96.895-67 62 0 93.605 28.512 93.605 43Z"/><path fill="#000" d="M309.8 491.5h-30.935c-.803 0-1.205-.447-1.205-1.34l-.803-351.053h-35.622c-.893 0-1.34-.447-1.34-1.341l.268-30.694c0-.715.357-1.072 1.072-1.072h104.187c.982 0 1.473.357 1.473 1.072v30.694c0 .894-.357 1.341-1.071 1.341H309.8l1.072 351.053c0 .893-.358 1.34-1.072 1.34Z"/><path fill="#000" d="M376.626 491.5H345.47c-.717 0-1.075-.446-1.075-1.34l.037-383.088c0-.715.359-1.072 1.075-1.072h55.597c9.938 0 19.07 2.413 27.396 7.238 8.326 4.825 14.951 11.304 19.875 19.435 5.014 8.131 7.52 17.335 7.52 27.611 0 6.702-1.029 12.778-3.088 18.229-2.06 5.451-4.477 10.053-7.252 13.806-2.686 3.753-5.148 6.523-7.386 8.31 9.937 10.991 14.906 23.903 14.906 38.736l.769 250.795c0 .894-.448 1.34-1.343 1.34h-31.156c-.716 0-1.074-.804-1.074-1.34l-.5-250.795c0-6.612-2.328-12.331-6.984-17.157-4.655-4.825-10.385-7.237-17.189-7.237h-18.13l.232 275.189c0 .894-.358 1.34-1.074 1.34Zm24.478-352.661h-23.636v43.159h23.636c5.64 0 10.654-2.1 15.041-6.3 4.476-4.2 6.714-9.338 6.714-15.414 0-5.808-2.148-10.812-6.446-15.012-4.297-4.289-9.4-6.433-15.309-6.433Z"/><circle cx="150.895" cy="287" r="33" fill="#000"/><ellipse cx="419.41" cy="499.41" fill="#000" rx="28.965" ry="39.498" transform="rotate(45 419.41 499.41)"/><rect width="33" height="287" x="133.895" fill="#000" rx="16.5"/></svg>